<svg width="800" height="114" viewBox="0 0 800 114" fill="none" xmlns="http://www.w3.org/2000/svg">
<path d="M23.6769 80.2817C23.6769 90.4095 26.8999 96.338 29.7511 98.4377V98.6847H0V98.4377C3.09907 96.338 6.69399 90.286 6.69399 80.1582V30.8776C6.69399 21.1203 3.22303 15.1918 0 13.0921V12.8451H29.7511V13.0921C26.8999 15.1918 23.6769 21.2438 23.6769 31.3716V80.2817ZM67.3118 84.7281C71.5266 90.9036 74.9975 94.1148 81.0717 96.585V96.8321L56.1552 101.031C55.4114 98.1907 52.9321 93.4973 50.081 89.2979L25.0405 52.2449L45.9902 22.7259C49.0893 18.2795 50.2049 15.1918 50.081 12.8451H75.8653V13.0921C70.6588 15.5623 65.2045 21.3673 61.2376 26.8017L43.7589 50.3922L67.3118 84.7281Z" fill="black"/>
<path d="M123.622 101.155C95.8543 101.155 79.4912 81.8873 79.4912 56.5677C79.4912 28.7779 96.846 10.3749 125.481 10.3749C152.009 10.3749 169.736 28.2839 169.736 54.8386C169.736 82.3814 151.266 101.155 123.622 101.155ZM124.862 88.3099C140.109 88.3099 151.266 75.8353 151.266 56.0737C151.266 35.2004 141.101 23.2199 124.242 23.2199C107.879 23.2199 97.9616 36.065 97.9616 55.3326C97.9616 75.5883 107.135 88.3099 124.862 88.3099Z" fill="black"/>
<path d="M282.841 54.7151C282.841 79.4171 265.61 97.8201 240.197 98.8082C240.817 106.96 243.916 111.9 246.767 113.753V114H216.396V113.753C219.124 111.9 222.347 106.836 222.967 98.5612C196.438 97.4496 180.323 81.6403 180.323 56.6912C180.323 32.7302 197.554 14.4507 222.719 13.2156C221.727 6.17552 219 1.97616 216.396 0.247017V0H246.767V0.247017C244.288 1.97616 241.437 6.17552 240.445 13.2156C266.478 14.5742 282.841 31.6186 282.841 54.7151ZM198.794 55.4561C198.794 72.7476 208.959 84.7281 223.338 85.9632V25.8136C207.347 26.8017 198.794 38.5352 198.794 55.4561ZM239.825 86.0867C254.701 85.2221 264.37 73.2416 264.37 55.9502C264.37 39.3998 254.701 26.9252 239.825 25.8136V86.0867Z" fill="black"/>
<path d="M357.365 74.9707L357.612 75.0943L354.142 99.6728C349.555 98.9317 346.332 98.6847 339.018 98.6847H295.259V98.4377C298.358 96.338 301.953 90.286 301.953 80.1582V31.3716C301.953 21.1203 298.482 15.1918 295.259 13.0921V12.8451H339.762C344.72 12.8451 350.175 12.4745 352.902 11.857L355.009 33.9653L354.761 34.0888C351.786 28.0368 344.968 24.9491 335.299 24.9491H318.936V46.6869H328.357C338.646 46.6869 342.117 46.5634 347.695 45.8223L344.1 66.572H343.853C341.745 61.0141 337.283 58.7909 330.341 58.7909H318.936V86.5807H332.448C343.357 86.5807 352.034 82.5049 357.365 74.9707Z" fill="black"/>
<path d="M366.365 98.6847L366.241 98.4377C370.208 94.1148 373.059 89.1744 373.679 80.5287L376.902 32.6067C377.398 25.8136 375.787 16.4269 370.208 13.0921L370.332 12.8451H398.72C397.232 14.6977 397.48 18.5265 400.703 24.0845L412.975 45.0813C416.818 51.7508 419.545 58.4204 420.661 65.4604H421.157C423.016 57.9263 426.239 52.2449 430.33 45.0813L442.479 23.714C445.578 18.2795 445.826 14.6977 444.338 12.8451H472.973L473.097 13.0921C467.519 16.1798 465.412 25.8136 465.908 32.6067L469.75 80.5287C470.246 86.4572 472.602 93.9913 477.064 98.4377L476.94 98.6847H448.553L448.429 98.4377C450.784 96.338 453.139 90.9036 452.52 83.1224L450.536 57.5558C450.04 51.7508 450.164 45.3283 451.28 36.312H450.784C448.181 44.5872 445.33 50.3922 441.239 57.3088L427.479 80.5287C423.016 87.9393 421.901 92.8797 421.653 95.4734H420.661C420.289 92.8797 419.05 87.9393 414.463 80.6522L399.711 57.1853C395.745 50.7627 393.141 44.9577 390.786 36.312H390.29C391.282 45.5753 391.282 52.2449 391.034 57.5558L389.67 83.1224C389.298 90.9036 391.406 96.338 393.761 98.4377L393.637 98.6847H366.365Z" fill="black"/>
<path d="M554.914 78.429C558.261 87.9393 563.591 95.597 567.062 98.4377V98.6847H539.047V98.4377C541.154 96.8321 542.146 91.7681 539.047 83.2459L537.931 80.2817H505.949L504.833 83.2459C501.61 91.7681 502.849 96.8321 504.585 98.4377V98.6847H478.553V98.4377C481.9 95.4735 487.23 87.9393 490.577 78.429L508.304 27.5428C510.783 20.2557 508.428 15.0683 506.072 13.0921V12.8451H538.923V13.0921C536.567 15.1918 534.088 20.2557 536.691 27.5428L554.914 78.429ZM521.568 29.2719C520.452 38.7822 517.477 47.0574 514.626 55.0856L510.039 68.1777H533.84L529.254 55.0856C526.402 47.0574 523.303 38.7822 522.064 29.2719H521.568Z" fill="black"/>
<path d="M572.118 98.6847V98.4377C575.465 96.338 579.06 88.9274 579.06 79.5406V30.8776C579.06 21.1203 575.589 15.1918 572.365 13.0921V12.8451H608.811C618.852 12.8451 623.686 12.598 627.033 11.9805L629.14 34.0888L628.893 34.2123C625.917 28.1603 619.099 25.0726 609.43 25.0726H596.042V80.0347C596.042 89.0509 599.389 96.338 603.604 98.4377V98.6847H572.118Z" fill="black"/>
<path d="M637.618 98.6847V98.4377C640.469 96.338 643.94 90.286 643.94 80.1582V31.3716C643.94 21.1203 640.469 15.1918 637.246 13.0921V12.8451H667.493V13.0921C664.642 15.1918 661.047 21.2438 661.047 31.3716V53.1094C661.047 60.1495 660.304 68.0542 658.32 79.0466H658.816C662.535 68.4247 667.493 59.779 670.84 54.221L688.691 24.7021C692.782 17.909 693.526 15.3153 693.773 12.8451H721.169V13.0921C718.318 14.5742 713.855 22.8494 713.855 30.7541V80.1582C713.855 90.4095 717.326 96.338 720.549 98.4377V98.6847H690.055V98.4377C693.154 96.338 696.749 90.286 696.749 80.1582V57.9263C696.749 50.2687 697.864 40.7584 700.22 30.507H699.724C696.253 40.5114 691.914 49.2806 687.203 56.8147L668.485 86.9512C666.006 90.9036 663.651 95.3499 662.287 98.6847H637.618Z" fill="black"/>
<path d="M800 13.0921C796.901 15.1918 793.306 21.2438 793.306 31.3716V80.1582C793.306 90.4095 796.777 96.338 800 98.4377V98.6847H770.373V98.4377C773.1 96.338 776.323 90.286 776.323 80.1582V25.0726L766.902 24.9491C756.365 24.8256 750.415 29.766 750.415 40.3879C750.415 49.4041 756.365 54.8386 766.902 54.8386H773.596L755.249 87.4453C752.15 93.0032 750.539 96.9556 749.299 101.278L725.746 96.7086V96.4615C730.581 95.1029 736.159 89.6685 740.25 82.6284L750.911 64.1018C740.002 60.7671 733.184 52.6154 733.184 41.4995C733.184 22.8494 743.845 12.8451 764.795 12.8451H800V13.0921Z" fill="black"/>
</svg>
